<?xml version="1.0" encoding="UTF-8"?><svg id="Layer_2" xmlns="http://www.w3.org/2000/svg" viewBox="0 0 400 400"><defs><style>.cls-1{fill:#08162d;}.cls-1,.cls-2,.cls-3{stroke-width:0px;}.cls-2{fill:#fff;}.cls-3{fill:#fe7e43;}</style></defs><g id="Layer_1-2"><rect class="cls-2" width="400" height="400"/><rect class="cls-1" x="203.78" y="189.1" width="130.24" height="44.88" rx="22.44" ry="22.44" transform="translate(309.45 551.25) rotate(-135)"/><rect class="cls-1" x="65.99" y="166.49" width="130.24" height="44.88" rx="22.44" ry="22.44" transform="translate(90.21 415.24) rotate(-135)"/><rect class="cls-3" x="80.81" y="217.26" width="44.46" height="44.46" rx="22.23" ry="22.23" transform="translate(345.24 335.98) rotate(135)"/><rect class="cls-3" x="137.62" y="80.26" width="44.46" height="44.46" rx="22.23" ry="22.23" transform="translate(345.35 61.93) rotate(135)"/><rect class="cls-3" x="275.42" y="137.78" width="44.46" height="44.46" rx="22.23" ry="22.23" transform="translate(621.26 62.69) rotate(135)"/><rect class="cls-3" x="218.16" y="275.54" width="44.46" height="44.46" rx="22.23" ry="22.23" transform="translate(620.92 338.34) rotate(135)"/><rect class="cls-1" x="124.71" y="246.34" width="129.19" height="44.88" rx="22.44" ry="22.44" transform="translate(-134.61 212.58) rotate(-45)"/><rect class="cls-1" x="146.71" y="108.78" width="129.19" height="44.88" rx="22.44" ry="22.44" transform="translate(-30.9 187.85) rotate(-45)"/></g></svg>